<mxfile host="app.diagrams.net" agent="Mozilla/5.0 (Windows NT 10.0; WOW64) AppleWebKit/537.36 (KHTML, like Gecko) Chrome/102.0.5005.167 YaBrowser/22.7.5.947 Yowser/2.5 Safari/537.36" version="24.9.1">
  <diagram name="Page-1" id="e56a1550-8fbb-45ad-956c-1786394a9013">
    <mxGraphModel dx="1050" dy="569" grid="1" gridSize="10" guides="1" tooltips="1" connect="1" arrows="1" fold="1" page="1" pageScale="1" pageWidth="1100" pageHeight="850" background="none" math="0" shadow="0">
      <root>
        <mxCell id="0" />
        <mxCell id="1" parent="0" />
        <mxCell id="OeNacRO4QM_5NXUT1XBD-8" style="rounded=0;orthogonalLoop=1;jettySize=auto;html=1;entryX=0.5;entryY=1;entryDx=0;entryDy=0;endArrow=none;endFill=0;" parent="1" source="OeNacRO4QM_5NXUT1XBD-1" target="OeNacRO4QM_5NXUT1XBD-3" edge="1">
          <mxGeometry relative="1" as="geometry" />
        </mxCell>
        <mxCell id="OeNacRO4QM_5NXUT1XBD-9" style="rounded=0;orthogonalLoop=1;jettySize=auto;html=1;entryX=0.5;entryY=1;entryDx=0;entryDy=0;endArrow=none;endFill=0;" parent="1" source="OeNacRO4QM_5NXUT1XBD-1" target="OeNacRO4QM_5NXUT1XBD-4" edge="1">
          <mxGeometry relative="1" as="geometry" />
        </mxCell>
        <mxCell id="OeNacRO4QM_5NXUT1XBD-10" style="rounded=0;orthogonalLoop=1;jettySize=auto;html=1;entryX=0.5;entryY=1;entryDx=0;entryDy=0;endArrow=none;endFill=0;" parent="1" source="OeNacRO4QM_5NXUT1XBD-1" target="OeNacRO4QM_5NXUT1XBD-5" edge="1">
          <mxGeometry relative="1" as="geometry" />
        </mxCell>
        <mxCell id="OeNacRO4QM_5NXUT1XBD-33" style="edgeStyle=orthogonalEdgeStyle;rounded=0;orthogonalLoop=1;jettySize=auto;html=1;entryX=0;entryY=0.5;entryDx=0;entryDy=0;endArrow=none;endFill=0;" parent="1" source="OeNacRO4QM_5NXUT1XBD-1" target="OeNacRO4QM_5NXUT1XBD-32" edge="1">
          <mxGeometry relative="1" as="geometry" />
        </mxCell>
        <mxCell id="XBkL7CEjBwHuElLqYNc7-42" style="rounded=0;orthogonalLoop=1;jettySize=auto;html=1;entryX=0.5;entryY=0;entryDx=0;entryDy=0;endArrow=none;endFill=0;" parent="1" source="OeNacRO4QM_5NXUT1XBD-1" target="XBkL7CEjBwHuElLqYNc7-41" edge="1">
          <mxGeometry relative="1" as="geometry" />
        </mxCell>
        <mxCell id="MfIK-Zm7vGEExNfYLGaR-6" style="rounded=0;orthogonalLoop=1;jettySize=auto;html=1;entryX=0.5;entryY=1;entryDx=0;entryDy=0;endArrow=none;endFill=0;" edge="1" parent="1" source="OeNacRO4QM_5NXUT1XBD-1" target="MfIK-Zm7vGEExNfYLGaR-5">
          <mxGeometry relative="1" as="geometry" />
        </mxCell>
        <mxCell id="OeNacRO4QM_5NXUT1XBD-1" value="Программное обеспечение" style="whiteSpace=wrap;html=1;align=center;" parent="1" vertex="1">
          <mxGeometry x="145" y="497.5" width="100" height="40" as="geometry" />
        </mxCell>
        <mxCell id="OeNacRO4QM_5NXUT1XBD-3" value="Название" style="ellipse;whiteSpace=wrap;html=1;align=center;" parent="1" vertex="1">
          <mxGeometry x="45" y="422.5" width="80" height="30" as="geometry" />
        </mxCell>
        <mxCell id="OeNacRO4QM_5NXUT1XBD-4" value="Версия" style="ellipse;whiteSpace=wrap;html=1;align=center;" parent="1" vertex="1">
          <mxGeometry x="135" y="422.5" width="80" height="27.5" as="geometry" />
        </mxCell>
        <mxCell id="XBkL7CEjBwHuElLqYNc7-2" style="rounded=0;orthogonalLoop=1;jettySize=auto;html=1;entryX=0.5;entryY=1;entryDx=0;entryDy=0;endArrow=none;endFill=0;" parent="1" source="OeNacRO4QM_5NXUT1XBD-5" target="XBkL7CEjBwHuElLqYNc7-1" edge="1">
          <mxGeometry relative="1" as="geometry" />
        </mxCell>
        <mxCell id="XBkL7CEjBwHuElLqYNc7-4" style="rounded=0;orthogonalLoop=1;jettySize=auto;html=1;entryX=0.5;entryY=1;entryDx=0;entryDy=0;endArrow=none;endFill=0;" parent="1" source="OeNacRO4QM_5NXUT1XBD-5" target="XBkL7CEjBwHuElLqYNc7-3" edge="1">
          <mxGeometry relative="1" as="geometry" />
        </mxCell>
        <mxCell id="OeNacRO4QM_5NXUT1XBD-5" value="Лицензия" style="ellipse;whiteSpace=wrap;html=1;align=center;" parent="1" vertex="1">
          <mxGeometry x="225" y="422.5" width="90" height="30" as="geometry" />
        </mxCell>
        <mxCell id="OeNacRO4QM_5NXUT1XBD-18" style="rounded=0;orthogonalLoop=1;jettySize=auto;html=1;entryX=0.5;entryY=1;entryDx=0;entryDy=0;endArrow=none;endFill=0;" parent="1" source="OeNacRO4QM_5NXUT1XBD-12" target="OeNacRO4QM_5NXUT1XBD-14" edge="1">
          <mxGeometry relative="1" as="geometry" />
        </mxCell>
        <mxCell id="OeNacRO4QM_5NXUT1XBD-19" style="rounded=0;orthogonalLoop=1;jettySize=auto;html=1;entryX=0.5;entryY=1;entryDx=0;entryDy=0;endArrow=none;endFill=0;" parent="1" source="OeNacRO4QM_5NXUT1XBD-12" target="OeNacRO4QM_5NXUT1XBD-15" edge="1">
          <mxGeometry relative="1" as="geometry" />
        </mxCell>
        <mxCell id="OeNacRO4QM_5NXUT1XBD-20" style="rounded=0;orthogonalLoop=1;jettySize=auto;html=1;entryX=0.5;entryY=1;entryDx=0;entryDy=0;endArrow=none;endFill=0;" parent="1" source="OeNacRO4QM_5NXUT1XBD-12" target="OeNacRO4QM_5NXUT1XBD-16" edge="1">
          <mxGeometry relative="1" as="geometry" />
        </mxCell>
        <mxCell id="sOHDyR15hq9lqKqcyuL_-2" style="rounded=0;orthogonalLoop=1;jettySize=auto;html=1;entryX=0.5;entryY=1;entryDx=0;entryDy=0;endArrow=none;endFill=0;" parent="1" source="OeNacRO4QM_5NXUT1XBD-12" target="sOHDyR15hq9lqKqcyuL_-1" edge="1">
          <mxGeometry relative="1" as="geometry" />
        </mxCell>
        <mxCell id="OeNacRO4QM_5NXUT1XBD-12" value="Устройство(ПК)" style="whiteSpace=wrap;html=1;align=center;" parent="1" vertex="1">
          <mxGeometry x="760" y="497.5" width="185" height="40" as="geometry" />
        </mxCell>
        <mxCell id="OeNacRO4QM_5NXUT1XBD-14" value="Название" style="ellipse;whiteSpace=wrap;html=1;align=center;" parent="1" vertex="1">
          <mxGeometry x="720" y="420" width="80" height="30" as="geometry" />
        </mxCell>
        <mxCell id="OeNacRO4QM_5NXUT1XBD-15" value="ОС" style="ellipse;whiteSpace=wrap;html=1;align=center;" parent="1" vertex="1">
          <mxGeometry x="812.5" y="420" width="80" height="30" as="geometry" />
        </mxCell>
        <mxCell id="OeNacRO4QM_5NXUT1XBD-16" value="IP адрес" style="ellipse;whiteSpace=wrap;html=1;align=center;" parent="1" vertex="1">
          <mxGeometry x="910" y="425" width="80" height="30" as="geometry" />
        </mxCell>
        <mxCell id="OeNacRO4QM_5NXUT1XBD-34" style="edgeStyle=orthogonalEdgeStyle;rounded=0;orthogonalLoop=1;jettySize=auto;html=1;entryX=0;entryY=0.5;entryDx=0;entryDy=0;endArrow=none;endFill=0;" parent="1" source="OeNacRO4QM_5NXUT1XBD-32" target="OeNacRO4QM_5NXUT1XBD-12" edge="1">
          <mxGeometry relative="1" as="geometry" />
        </mxCell>
        <mxCell id="OeNacRO4QM_5NXUT1XBD-32" value="Установлено" style="shape=rhombus;double=1;perimeter=rhombusPerimeter;whiteSpace=wrap;html=1;align=center;" parent="1" vertex="1">
          <mxGeometry x="355" y="487.5" width="120" height="60" as="geometry" />
        </mxCell>
        <mxCell id="XBkL7CEjBwHuElLqYNc7-1" value="Дата начала действия" style="ellipse;whiteSpace=wrap;html=1;align=center;" parent="1" vertex="1">
          <mxGeometry x="175" y="340" width="90" height="40" as="geometry" />
        </mxCell>
        <mxCell id="XBkL7CEjBwHuElLqYNc7-3" value="Дата окончания действия" style="ellipse;whiteSpace=wrap;html=1;align=center;" parent="1" vertex="1">
          <mxGeometry x="280" y="336.88" width="110" height="46.25" as="geometry" />
        </mxCell>
        <mxCell id="XBkL7CEjBwHuElLqYNc7-7" style="rounded=0;orthogonalLoop=1;jettySize=auto;html=1;entryX=0.5;entryY=1;entryDx=0;entryDy=0;endArrow=none;endFill=0;" parent="1" source="XBkL7CEjBwHuElLqYNc7-5" target="XBkL7CEjBwHuElLqYNc7-6" edge="1">
          <mxGeometry relative="1" as="geometry" />
        </mxCell>
        <mxCell id="XBkL7CEjBwHuElLqYNc7-9" style="rounded=0;orthogonalLoop=1;jettySize=auto;html=1;entryX=0.5;entryY=1;entryDx=0;entryDy=0;endArrow=none;endFill=0;" parent="1" source="XBkL7CEjBwHuElLqYNc7-5" target="XBkL7CEjBwHuElLqYNc7-8" edge="1">
          <mxGeometry relative="1" as="geometry" />
        </mxCell>
        <mxCell id="XBkL7CEjBwHuElLqYNc7-16" style="rounded=0;orthogonalLoop=1;jettySize=auto;html=1;entryX=0.5;entryY=1;entryDx=0;entryDy=0;endArrow=none;endFill=0;exitX=0.469;exitY=0.028;exitDx=0;exitDy=0;exitPerimeter=0;" parent="1" source="XBkL7CEjBwHuElLqYNc7-5" target="XBkL7CEjBwHuElLqYNc7-14" edge="1">
          <mxGeometry relative="1" as="geometry">
            <mxPoint x="613" y="648" as="sourcePoint" />
          </mxGeometry>
        </mxCell>
        <mxCell id="XBkL7CEjBwHuElLqYNc7-31" style="rounded=0;orthogonalLoop=1;jettySize=auto;html=1;exitX=0.5;exitY=1;exitDx=0;exitDy=0;entryX=0.5;entryY=0;entryDx=0;entryDy=0;endArrow=none;endFill=0;" parent="1" source="XBkL7CEjBwHuElLqYNc7-5" target="XBkL7CEjBwHuElLqYNc7-30" edge="1">
          <mxGeometry relative="1" as="geometry" />
        </mxCell>
        <mxCell id="XBkL7CEjBwHuElLqYNc7-33" style="rounded=0;orthogonalLoop=1;jettySize=auto;html=1;exitX=0.612;exitY=0.924;exitDx=0;exitDy=0;entryX=0.5;entryY=0;entryDx=0;entryDy=0;endArrow=none;endFill=0;exitPerimeter=0;" parent="1" source="XBkL7CEjBwHuElLqYNc7-5" target="XBkL7CEjBwHuElLqYNc7-32" edge="1">
          <mxGeometry relative="1" as="geometry" />
        </mxCell>
        <mxCell id="MfIK-Zm7vGEExNfYLGaR-2" style="rounded=0;orthogonalLoop=1;jettySize=auto;html=1;entryX=0.5;entryY=0;entryDx=0;entryDy=0;endArrow=none;endFill=0;" edge="1" parent="1" source="XBkL7CEjBwHuElLqYNc7-5" target="MfIK-Zm7vGEExNfYLGaR-1">
          <mxGeometry relative="1" as="geometry" />
        </mxCell>
        <mxCell id="MfIK-Zm7vGEExNfYLGaR-4" style="rounded=0;orthogonalLoop=1;jettySize=auto;html=1;entryX=0.5;entryY=0;entryDx=0;entryDy=0;endArrow=none;endFill=0;" edge="1" parent="1" source="XBkL7CEjBwHuElLqYNc7-5" target="MfIK-Zm7vGEExNfYLGaR-3">
          <mxGeometry relative="1" as="geometry" />
        </mxCell>
        <mxCell id="XBkL7CEjBwHuElLqYNc7-5" value="Пользователь" style="rounded=0;whiteSpace=wrap;html=1;" parent="1" vertex="1">
          <mxGeometry x="760" y="650" width="195" height="50" as="geometry" />
        </mxCell>
        <mxCell id="XBkL7CEjBwHuElLqYNc7-6" value="Фамилия" style="ellipse;whiteSpace=wrap;html=1;align=center;" parent="1" vertex="1">
          <mxGeometry x="610" y="800" width="90" height="40" as="geometry" />
        </mxCell>
        <mxCell id="XBkL7CEjBwHuElLqYNc7-8" value="Роль" style="ellipse;whiteSpace=wrap;html=1;align=center;" parent="1" vertex="1">
          <mxGeometry x="940" y="800" width="90" height="40" as="geometry" />
        </mxCell>
        <mxCell id="XBkL7CEjBwHuElLqYNc7-17" style="rounded=0;orthogonalLoop=1;jettySize=auto;html=1;entryX=0.5;entryY=1;entryDx=0;entryDy=0;endArrow=none;endFill=0;" parent="1" source="XBkL7CEjBwHuElLqYNc7-14" target="OeNacRO4QM_5NXUT1XBD-12" edge="1">
          <mxGeometry relative="1" as="geometry" />
        </mxCell>
        <mxCell id="XBkL7CEjBwHuElLqYNc7-14" value="Обслуживает" style="shape=rhombus;double=1;perimeter=rhombusPerimeter;whiteSpace=wrap;html=1;align=center;" parent="1" vertex="1">
          <mxGeometry x="805" y="570" width="95" height="60" as="geometry" />
        </mxCell>
        <mxCell id="XBkL7CEjBwHuElLqYNc7-21" value="M" style="text;strokeColor=none;align=center;fillColor=none;html=1;verticalAlign=middle;whiteSpace=wrap;rounded=0;" parent="1" vertex="1">
          <mxGeometry x="805" y="537.5" width="60" height="30" as="geometry" />
        </mxCell>
        <mxCell id="XBkL7CEjBwHuElLqYNc7-22" value="N" style="text;strokeColor=none;align=center;fillColor=none;html=1;verticalAlign=middle;whiteSpace=wrap;rounded=0;" parent="1" vertex="1">
          <mxGeometry x="805" y="620" width="60" height="30" as="geometry" />
        </mxCell>
        <mxCell id="XBkL7CEjBwHuElLqYNc7-28" value="M" style="text;strokeColor=none;align=center;fillColor=none;html=1;verticalAlign=middle;whiteSpace=wrap;rounded=0;" parent="1" vertex="1">
          <mxGeometry x="230" y="487.5" width="60" height="30" as="geometry" />
        </mxCell>
        <mxCell id="XBkL7CEjBwHuElLqYNc7-29" value="N" style="text;strokeColor=none;align=center;fillColor=none;html=1;verticalAlign=middle;whiteSpace=wrap;rounded=0;" parent="1" vertex="1">
          <mxGeometry x="710" y="487.5" width="60" height="30" as="geometry" />
        </mxCell>
        <mxCell id="XBkL7CEjBwHuElLqYNc7-30" value="Имя" style="ellipse;whiteSpace=wrap;html=1;align=center;" parent="1" vertex="1">
          <mxGeometry x="730" y="800" width="90" height="40" as="geometry" />
        </mxCell>
        <mxCell id="XBkL7CEjBwHuElLqYNc7-32" value="Отчество" style="ellipse;whiteSpace=wrap;html=1;align=center;" parent="1" vertex="1">
          <mxGeometry x="830" y="800" width="90" height="40" as="geometry" />
        </mxCell>
        <mxCell id="XBkL7CEjBwHuElLqYNc7-36" style="rounded=0;orthogonalLoop=1;jettySize=auto;html=1;entryX=0.5;entryY=0;entryDx=0;entryDy=0;endArrow=none;endFill=0;" parent="1" source="XBkL7CEjBwHuElLqYNc7-34" target="XBkL7CEjBwHuElLqYNc7-35" edge="1">
          <mxGeometry relative="1" as="geometry" />
        </mxCell>
        <mxCell id="XBkL7CEjBwHuElLqYNc7-38" style="rounded=0;orthogonalLoop=1;jettySize=auto;html=1;entryX=0.5;entryY=0;entryDx=0;entryDy=0;endArrow=none;endFill=0;" parent="1" source="XBkL7CEjBwHuElLqYNc7-34" target="XBkL7CEjBwHuElLqYNc7-37" edge="1">
          <mxGeometry relative="1" as="geometry" />
        </mxCell>
        <mxCell id="XBkL7CEjBwHuElLqYNc7-40" style="rounded=0;orthogonalLoop=1;jettySize=auto;html=1;exitX=0.75;exitY=1;exitDx=0;exitDy=0;entryX=0.5;entryY=0;entryDx=0;entryDy=0;endArrow=none;endFill=0;" parent="1" source="XBkL7CEjBwHuElLqYNc7-34" target="XBkL7CEjBwHuElLqYNc7-39" edge="1">
          <mxGeometry relative="1" as="geometry" />
        </mxCell>
        <mxCell id="XBkL7CEjBwHuElLqYNc7-34" value="Производитель" style="whiteSpace=wrap;html=1;align=center;" parent="1" vertex="1">
          <mxGeometry x="145" y="650" width="100" height="40" as="geometry" />
        </mxCell>
        <mxCell id="XBkL7CEjBwHuElLqYNc7-35" value="Наименование" style="ellipse;whiteSpace=wrap;html=1;align=center;" parent="1" vertex="1">
          <mxGeometry x="45" y="750" width="95" height="40" as="geometry" />
        </mxCell>
        <mxCell id="XBkL7CEjBwHuElLqYNc7-37" value="Тип компании" style="ellipse;whiteSpace=wrap;html=1;align=center;" parent="1" vertex="1">
          <mxGeometry x="150" y="750" width="85" height="40" as="geometry" />
        </mxCell>
        <mxCell id="XBkL7CEjBwHuElLqYNc7-39" value="Местоположение" style="ellipse;whiteSpace=wrap;html=1;align=center;" parent="1" vertex="1">
          <mxGeometry x="245" y="750" width="100" height="40" as="geometry" />
        </mxCell>
        <mxCell id="XBkL7CEjBwHuElLqYNc7-43" style="rounded=0;orthogonalLoop=1;jettySize=auto;html=1;entryX=0.5;entryY=0;entryDx=0;entryDy=0;endArrow=none;endFill=0;" parent="1" source="XBkL7CEjBwHuElLqYNc7-41" target="XBkL7CEjBwHuElLqYNc7-34" edge="1">
          <mxGeometry relative="1" as="geometry" />
        </mxCell>
        <mxCell id="XBkL7CEjBwHuElLqYNc7-41" value="Приобретено" style="shape=rhombus;double=1;perimeter=rhombusPerimeter;whiteSpace=wrap;html=1;align=center;" parent="1" vertex="1">
          <mxGeometry x="135" y="560" width="120" height="60" as="geometry" />
        </mxCell>
        <mxCell id="XBkL7CEjBwHuElLqYNc7-44" value="M" style="text;strokeColor=none;align=center;fillColor=none;html=1;verticalAlign=middle;whiteSpace=wrap;rounded=0;" parent="1" vertex="1">
          <mxGeometry x="155" y="530" width="60" height="30" as="geometry" />
        </mxCell>
        <mxCell id="XBkL7CEjBwHuElLqYNc7-45" value="1" style="text;strokeColor=none;align=center;fillColor=none;html=1;verticalAlign=middle;whiteSpace=wrap;rounded=0;" parent="1" vertex="1">
          <mxGeometry x="155" y="620" width="60" height="30" as="geometry" />
        </mxCell>
        <mxCell id="QerBmhI7ZtG_lH5X95o7-6" style="rounded=0;orthogonalLoop=1;jettySize=auto;html=1;entryX=0.5;entryY=0;entryDx=0;entryDy=0;endArrow=none;endFill=0;" parent="1" source="QerBmhI7ZtG_lH5X95o7-1" target="QerBmhI7ZtG_lH5X95o7-2" edge="1">
          <mxGeometry relative="1" as="geometry" />
        </mxCell>
        <mxCell id="QerBmhI7ZtG_lH5X95o7-7" style="rounded=0;orthogonalLoop=1;jettySize=auto;html=1;entryX=0.5;entryY=0;entryDx=0;entryDy=0;endArrow=none;endFill=0;" parent="1" source="QerBmhI7ZtG_lH5X95o7-1" target="QerBmhI7ZtG_lH5X95o7-3" edge="1">
          <mxGeometry relative="1" as="geometry" />
        </mxCell>
        <mxCell id="QerBmhI7ZtG_lH5X95o7-8" style="rounded=0;orthogonalLoop=1;jettySize=auto;html=1;entryX=0.5;entryY=0;entryDx=0;entryDy=0;endArrow=none;endFill=0;" parent="1" source="QerBmhI7ZtG_lH5X95o7-1" target="QerBmhI7ZtG_lH5X95o7-4" edge="1">
          <mxGeometry relative="1" as="geometry" />
        </mxCell>
        <mxCell id="cxs-x53S8IbZwA-z2rC_-5" style="rounded=0;orthogonalLoop=1;jettySize=auto;html=1;exitX=0.411;exitY=-0.097;exitDx=0;exitDy=0;entryX=0.5;entryY=1;entryDx=0;entryDy=0;exitPerimeter=0;endArrow=none;endFill=0;" parent="1" source="QerBmhI7ZtG_lH5X95o7-1" target="F7c6N-8SX1A4ImtObQ0J-1" edge="1">
          <mxGeometry relative="1" as="geometry" />
        </mxCell>
        <mxCell id="QerBmhI7ZtG_lH5X95o7-1" value="Заявка" style="rounded=0;whiteSpace=wrap;html=1;" parent="1" vertex="1">
          <mxGeometry x="465" y="670" width="90" height="35" as="geometry" />
        </mxCell>
        <mxCell id="QerBmhI7ZtG_lH5X95o7-2" value="Название ПО" style="ellipse;whiteSpace=wrap;html=1;" parent="1" vertex="1">
          <mxGeometry x="465" y="780" width="90" height="30" as="geometry" />
        </mxCell>
        <mxCell id="QerBmhI7ZtG_lH5X95o7-3" value="Производитель ПО" style="ellipse;whiteSpace=wrap;html=1;" parent="1" vertex="1">
          <mxGeometry x="550" y="740" width="110" height="40" as="geometry" />
        </mxCell>
        <mxCell id="QerBmhI7ZtG_lH5X95o7-4" value="Устройство(ПК)" style="ellipse;whiteSpace=wrap;html=1;" parent="1" vertex="1">
          <mxGeometry x="610" y="690" width="100" height="40" as="geometry" />
        </mxCell>
        <mxCell id="QerBmhI7ZtG_lH5X95o7-5" style="edgeStyle=orthogonalEdgeStyle;rounded=0;orthogonalLoop=1;jettySize=auto;html=1;exitX=0.5;exitY=1;exitDx=0;exitDy=0;" parent="1" source="QerBmhI7ZtG_lH5X95o7-1" target="QerBmhI7ZtG_lH5X95o7-1" edge="1">
          <mxGeometry relative="1" as="geometry" />
        </mxCell>
        <mxCell id="F7c6N-8SX1A4ImtObQ0J-3" style="rounded=0;orthogonalLoop=1;jettySize=auto;html=1;entryX=0;entryY=1;entryDx=0;entryDy=0;endArrow=none;endFill=0;" parent="1" source="F7c6N-8SX1A4ImtObQ0J-1" target="OeNacRO4QM_5NXUT1XBD-12" edge="1">
          <mxGeometry relative="1" as="geometry" />
        </mxCell>
        <mxCell id="F7c6N-8SX1A4ImtObQ0J-4" style="rounded=0;orthogonalLoop=1;jettySize=auto;html=1;entryX=1;entryY=1;entryDx=0;entryDy=0;endArrow=none;endFill=0;" parent="1" source="F7c6N-8SX1A4ImtObQ0J-1" target="OeNacRO4QM_5NXUT1XBD-1" edge="1">
          <mxGeometry relative="1" as="geometry" />
        </mxCell>
        <mxCell id="F7c6N-8SX1A4ImtObQ0J-1" value="Содержит" style="shape=rhombus;double=1;perimeter=rhombusPerimeter;whiteSpace=wrap;html=1;align=center;" parent="1" vertex="1">
          <mxGeometry x="435" y="570" width="120" height="60" as="geometry" />
        </mxCell>
        <mxCell id="OQZzJN4XngZsLZj__fDS-2" style="rounded=0;orthogonalLoop=1;jettySize=auto;html=1;entryX=0;entryY=0.5;entryDx=0;entryDy=0;endArrow=none;endFill=0;" parent="1" source="OQZzJN4XngZsLZj__fDS-1" target="QerBmhI7ZtG_lH5X95o7-1" edge="1">
          <mxGeometry relative="1" as="geometry" />
        </mxCell>
        <mxCell id="OQZzJN4XngZsLZj__fDS-1" value="ФИО" style="ellipse;whiteSpace=wrap;html=1;" parent="1" vertex="1">
          <mxGeometry x="370" y="740" width="90" height="30" as="geometry" />
        </mxCell>
        <mxCell id="cxs-x53S8IbZwA-z2rC_-1" value="M" style="text;strokeColor=none;align=center;fillColor=none;html=1;verticalAlign=middle;whiteSpace=wrap;rounded=0;" parent="1" vertex="1">
          <mxGeometry x="255" y="517.5" width="60" height="30" as="geometry" />
        </mxCell>
        <mxCell id="cxs-x53S8IbZwA-z2rC_-2" value="N" style="text;strokeColor=none;align=center;fillColor=none;html=1;verticalAlign=middle;whiteSpace=wrap;rounded=0;" parent="1" vertex="1">
          <mxGeometry x="710" y="517.5" width="60" height="30" as="geometry" />
        </mxCell>
        <mxCell id="cxs-x53S8IbZwA-z2rC_-3" value="M" style="text;strokeColor=none;align=center;fillColor=none;html=1;verticalAlign=middle;whiteSpace=wrap;rounded=0;" parent="1" vertex="1">
          <mxGeometry x="490" y="630" width="60" height="30" as="geometry" />
        </mxCell>
        <mxCell id="sOHDyR15hq9lqKqcyuL_-1" value="ОЗУ" style="ellipse;whiteSpace=wrap;html=1;" parent="1" vertex="1">
          <mxGeometry x="1000" y="425" width="80" height="35" as="geometry" />
        </mxCell>
        <mxCell id="MfIK-Zm7vGEExNfYLGaR-1" value="Пароль" style="ellipse;whiteSpace=wrap;html=1;" vertex="1" parent="1">
          <mxGeometry x="990" y="750" width="70" height="40" as="geometry" />
        </mxCell>
        <mxCell id="MfIK-Zm7vGEExNfYLGaR-3" value="Логин" style="ellipse;whiteSpace=wrap;html=1;" vertex="1" parent="1">
          <mxGeometry x="1000" y="690" width="80" height="40" as="geometry" />
        </mxCell>
        <mxCell id="MfIK-Zm7vGEExNfYLGaR-5" value="Логотип" style="ellipse;whiteSpace=wrap;html=1;" vertex="1" parent="1">
          <mxGeometry x="345" y="405" width="85" height="45" as="geometry" />
        </mxCell>
      </root>
    </mxGraphModel>
  </diagram>
</mxfile>
